<?xml version="1.0" encoding="utf-8"?>
<!-- Generator: Adobe Illustrator 27.5.0, SVG Export Plug-In . SVG Version: 6.00 Build 0)  -->
<svg version="1.1" id="Ñëîé_1" xmlns="http://www.w3.org/2000/svg" xmlns:xlink="http://www.w3.org/1999/xlink" x="0px" y="0px"
	 viewBox="0 0 600 450" style="enable-background:new 0 0 600 450;" xml:space="preserve">
<radialGradient id="SVGID_1_" cx="289.5006" cy="590.9819" r="372.0755" gradientUnits="userSpaceOnUse">
	<stop  offset="0" style="stop-color:#22215B"/>
	<stop  offset="0.4018" style="stop-color:#1F1E55"/>
	<stop  offset="0.9253" style="stop-color:#171445"/>
	<stop  offset="1" style="stop-color:#161242"/>
</radialGradient>
<rect y="0" style="fill:url(#SVGID_1_);" width="600" height="450"/>
<radialGradient id="SVGID_00000132809257979111205680000014803127492402767288_" cx="218.9278" cy="324.9944" r="4.8356" gradientUnits="userSpaceOnUse">
	<stop  offset="0" style="stop-color:#6EE1F8"/>
	<stop  offset="0.187" style="stop-color:#57B1CC"/>
	<stop  offset="0.4751" style="stop-color:#376C8D"/>
	<stop  offset="0.7164" style="stop-color:#203A5F"/>
	<stop  offset="0.8984" style="stop-color:#111B43"/>
	<stop  offset="1" style="stop-color:#0C0F38"/>
</radialGradient>
<path style="fill:url(#SVGID_00000132809257979111205680000014803127492402767288_);" d="M223.114,327.413
	c-1.336,2.312-4.293,3.103-6.605,1.767c-2.312-1.336-3.103-4.293-1.767-6.605c1.336-2.312,4.293-3.103,6.605-1.767
	C223.659,322.144,224.45,325.102,223.114,327.413z"/>
<radialGradient id="SVGID_00000097459293886500875670000004187114865405709496_" cx="26.5418" cy="1198.5364" r="9.1218" gradientTransform="matrix(1 0 0 -1 362.8165 1523.4629)" gradientUnits="userSpaceOnUse">
	<stop  offset="0" style="stop-color:#25BFEC"/>
	<stop  offset="0.0554" style="stop-color:#21A6D3"/>
	<stop  offset="0.1578" style="stop-color:#1C7EAA"/>
	<stop  offset="0.2665" style="stop-color:#175C87"/>
	<stop  offset="0.3808" style="stop-color:#13406A"/>
	<stop  offset="0.5026" style="stop-color:#102A54"/>
	<stop  offset="0.6353" style="stop-color:#0E1B44"/>
	<stop  offset="0.787" style="stop-color:#0C123B"/>
	<stop  offset="1" style="stop-color:#0C0F38"/>
</radialGradient>
<circle style="fill:url(#SVGID_00000097459293886500875670000004187114865405709496_);" cx="389.358" cy="324.926" r="9.12"/>
<radialGradient id="SVGID_00000063634706551028290330000011672607539751218061_" cx="345.9562" cy="324.9272" r="4.8356" gradientTransform="matrix(-1 0 0 1 735.3284 0)" gradientUnits="userSpaceOnUse">
	<stop  offset="0" style="stop-color:#6EE1F8"/>
	<stop  offset="0.187" style="stop-color:#57B1CC"/>
	<stop  offset="0.4751" style="stop-color:#376C8D"/>
	<stop  offset="0.7164" style="stop-color:#203A5F"/>
	<stop  offset="0.8984" style="stop-color:#111B43"/>
	<stop  offset="1" style="stop-color:#0C0F38"/>
</radialGradient>
<path style="fill:url(#SVGID_00000063634706551028290330000011672607539751218061_);" d="M385.186,327.346
	c1.336,2.312,4.293,3.103,6.605,1.767c2.312-1.336,3.103-4.293,1.767-6.605c-1.336-2.312-4.293-3.103-6.605-1.767
	C384.641,322.077,383.85,325.034,385.186,327.346z"/>
<path style="opacity:0.2;fill:#267FE5;" d="M303.361,372.332c-4.62,0-9.051-0.961-12.434-2.914l-159.143-91.882
	c-3.673-2.12-5.695-5.177-5.695-8.607c0-3.941,2.748-7.788,7.54-10.555l155.449-89.749c8.421-4.862,20.805-5.329,28.191-1.064
	l159.143,91.881c3.673,2.12,5.695,5.177,5.695,8.606c0,3.941-2.748,7.789-7.54,10.557l-155.449,89.748
	C314.554,370.987,308.826,372.332,303.361,372.332z M304.894,169.669c-4.634,0-9.562,1.117-13.316,3.285l-155.449,89.749
	c-3.156,1.822-5.04,4.149-5.04,6.225c0,2.011,1.738,3.435,3.195,4.277l159.143,91.882c5.784,3.339,16.405,2.853,23.19-1.065
	l155.449-89.748c3.156-1.822,5.04-4.15,5.04-6.227c0-2.01-1.737-3.435-3.195-4.276L314.768,171.89
	C312.184,170.398,308.634,169.669,304.894,169.669z"/>
<g>
	<g>
		<path style="fill:#0C0F38;" d="M297.856,258.313l-48.485-27.993c-3.447-1.99-3.015-5.467,0.966-7.765l46.552-26.877
			c3.981-2.298,10.002-2.548,13.449-0.557l48.485,27.993c3.447,1.99,3.015,5.467-0.966,7.765l-46.552,26.877
			C307.325,260.054,301.304,260.304,297.856,258.313z"/>
		
			<linearGradient id="SVGID_00000015313502267203024140000017092169486964727936_" gradientUnits="userSpaceOnUse" x1="234.6552" y1="182.4605" x2="376.9515" y2="182.4605">
			<stop  offset="0" style="stop-color:#A31FA9"/>
			<stop  offset="0.0668" style="stop-color:#8B17A0"/>
			<stop  offset="0.1494" style="stop-color:#740F98"/>
			<stop  offset="0.2393" style="stop-color:#640A92"/>
			<stop  offset="0.3408" style="stop-color:#5B078F"/>
			<stop  offset="0.4785" style="stop-color:#58068E"/>
			<stop  offset="0.6264" style="stop-color:#4D22A3"/>
			<stop  offset="0.9436" style="stop-color:#3168DA"/>
			<stop  offset="1" style="stop-color:#2C75E4"/>
		</linearGradient>
		<path style="fill:url(#SVGID_00000015313502267203024140000017092169486964727936_);" d="M362.497,139.727h-24.613l-27.399-15.819
			c-3.529-2.037-9.692-1.782-13.767,0.571l-26.41,15.248h-24.601v68.943h0.008c-0.1,1.379,0.669,2.71,2.364,3.688l49.629,28.654
			c3.529,2.037,9.692,1.782,13.767-0.571l47.651-27.511c2.117-1.222,3.244-2.769,3.352-4.26h0.018V139.727z"/>
		<path style="fill:#D4088C;" d="M251.94,139.727h-6.233v68.943h0.008c-0.071,0.978,0.305,1.93,1.129,2.751
			c-0.527-0.702-0.766-1.476-0.708-2.268h-0.008v-68.943h6.298C252.272,140.044,252.108,139.882,251.94,139.727z"/>
		<path style="fill:#6DE0F6;" d="M354.619,139.727c-0.045,0.138-0.092,0.276-0.141,0.415h7.577v68.943h-0.018
			c-0.067,0.924-0.528,1.869-1.371,2.746c1.121-0.989,1.735-2.088,1.813-3.161h0.018v-68.943H354.619z"/>
		<polygon style="opacity:0.5;fill:#D4088C;" points="263.093,221.025 263.093,141.059 254.154,141.059 254.154,215.865 		"/>
		<polygon style="opacity:0.3;fill:#D4088C;" points="268.581,224.194 268.581,146.43 266.139,146.43 266.139,222.784 		"/>
		<polygon style="opacity:0.15;fill:#D4088C;" points="272.952,226.717 272.952,147.369 270.51,147.369 270.51,225.307 		"/>
		
			<linearGradient id="SVGID_00000132784776795171137370000010578151204178805634_" gradientUnits="userSpaceOnUse" x1="496.3887" y1="710.1293" x2="563.5103" y2="652.0003" gradientTransform="matrix(0.866 0.5 -1 0.5774 525.0016 -518.4943)">
			<stop  offset="0" style="stop-color:#267FE5"/>
			<stop  offset="0.1699" style="stop-color:#2C87E7"/>
			<stop  offset="0.441" style="stop-color:#3D9FEB"/>
			<stop  offset="0.7773" style="stop-color:#59C4F2"/>
			<stop  offset="1" style="stop-color:#6EE1F8"/>
		</linearGradient>
		<path style="fill:url(#SVGID_00000132784776795171137370000010578151204178805634_);" d="M297.709,172.069l-49.629-28.654
			c-3.529-2.037-3.086-5.596,0.988-7.948l47.651-27.511c4.075-2.353,10.238-2.608,13.767-0.571l49.629,28.654
			c3.529,2.037,3.086,5.596-0.988,7.948l-47.651,27.511C307.401,173.851,301.238,174.106,297.709,172.069z"/>
		<path style="fill:#6DE0F6;" d="M298.255,172.069l-49.629-28.654c-3.529-2.037-3.086-5.596,0.988-7.948l47.651-27.511
			c2.018-1.165,4.549-1.813,7.019-1.925c-2.64,0.035-5.396,0.673-7.565,1.925l-47.651,27.511c-4.075,2.352-4.517,5.911-0.988,7.948
			l49.629,28.654c1.781,1.028,4.232,1.469,6.748,1.354C302.137,173.454,299.906,173.022,298.255,172.069z"/>
		<path style="fill:#6DE0F6;" d="M360.115,136.039l-49.629-28.654c-1.783-1.03-4.24-1.469-6.759-1.353
			c2.292-0.019,4.492,0.411,6.124,1.353l49.629,28.654c3.529,2.037,3.086,5.596-0.988,7.949l-47.651,27.511
			c-2.015,1.163-4.542,1.81-7.007,1.924c2.664-0.022,5.453-0.659,7.643-1.924l47.651-27.511
			C363.201,141.635,363.644,138.076,360.115,136.039z"/>
		<path style="fill:#6DE0F6;" d="M303.792,164.996c-1.701,0-3.324-0.343-4.536-1.042l-36.949-21.332
			c-1.199-0.692-1.859-1.658-1.859-2.718c0-1.269,0.946-2.544,2.595-3.496l35.476-20.482c3.076-1.777,7.75-1.966,10.42-0.425
			l36.949,21.332c1.199,0.692,1.859,1.658,1.859,2.719c0,1.269-0.946,2.543-2.595,3.496l-35.476,20.482
			C307.996,164.499,305.839,164.996,303.792,164.996z M304.403,114.795c-1.985,0-4.08,0.484-5.714,1.427l-35.476,20.482
			c-1.54,0.889-2.424,2.056-2.424,3.199c0,0.933,0.599,1.794,1.688,2.422l36.949,21.332c2.576,1.488,7.097,1.297,10.079-0.425
			l35.476-20.482c1.54-0.889,2.424-2.056,2.424-3.199c0-0.934-0.6-1.794-1.688-2.422l-36.949-21.332
			C307.603,115.124,306.041,114.795,304.403,114.795z"/>
		<g>
			<g>
				<path style="fill:#6DE0F6;" d="M312.892,176.962l41.982-24.283c0.384-0.222,0.695-0.816,0.695-1.329v-0.689
					c0-0.512-0.311-0.747-0.695-0.526l-41.982,24.283c-0.384,0.222-0.695,0.816-0.695,1.328v0.689
					C312.196,176.949,312.508,177.184,312.892,176.962z"/>
				<path style="fill:#267FE5;" d="M353.954,152.154c0.384-0.222,0.695-0.817,0.695-1.329v-0.56l0.224-0.129
					c0.384-0.222,0.695,0.014,0.695,0.526v0.689c0,0.512-0.311,1.107-0.695,1.329l-41.982,24.283
					c-0.384,0.222-0.695-0.014-0.695-0.526v-0.129L353.954,152.154z"/>
			</g>
			<g>
				<path style="fill:#6DE0F6;" d="M312.892,184.351l41.982-24.283c0.384-0.222,0.695-0.816,0.695-1.329v-0.689
					c0-0.512-0.311-0.747-0.695-0.526l-41.982,24.283c-0.384,0.222-0.695,0.816-0.695,1.328v0.689
					C312.196,184.337,312.508,184.572,312.892,184.351z"/>
				<path style="fill:#267FE5;" d="M353.954,159.543c0.384-0.222,0.695-0.817,0.695-1.329v-0.56l0.224-0.129
					c0.384-0.222,0.695,0.014,0.695,0.526v0.689c0,0.512-0.311,1.107-0.695,1.329l-41.982,24.283
					c-0.384,0.222-0.695-0.014-0.695-0.526v-0.129L353.954,159.543z"/>
			</g>
			<g>
				<path style="fill:#6DE0F6;" d="M312.892,191.739l41.982-24.283c0.384-0.222,0.695-0.816,0.695-1.328v-0.689
					c0-0.512-0.311-0.747-0.695-0.526l-41.982,24.283c-0.384,0.222-0.695,0.816-0.695,1.329v0.689
					C312.196,191.725,312.508,191.961,312.892,191.739z"/>
				<path style="fill:#267FE5;" d="M353.954,166.931c0.384-0.222,0.695-0.817,0.695-1.329v-0.56l0.224-0.129
					c0.384-0.222,0.695,0.014,0.695,0.526v0.689c0,0.512-0.311,1.107-0.695,1.329l-41.982,24.283
					c-0.384,0.222-0.695-0.014-0.695-0.526v-0.129L353.954,166.931z"/>
			</g>
			<g>
				<path style="fill:#6DE0F6;" d="M312.892,199.127l41.982-24.283c0.384-0.222,0.695-0.816,0.695-1.328v-0.689
					c0-0.512-0.311-0.747-0.695-0.526l-41.982,24.283c-0.384,0.222-0.695,0.816-0.695,1.329v0.689
					C312.196,199.114,312.508,199.349,312.892,199.127z"/>
				<path style="fill:#267FE5;" d="M353.954,174.32c0.384-0.222,0.695-0.817,0.695-1.329v-0.56l0.224-0.129
					c0.384-0.222,0.695,0.014,0.695,0.526v0.689c0,0.512-0.311,1.107-0.695,1.329l-41.982,24.283
					c-0.384,0.222-0.695-0.014-0.695-0.526v-0.129L353.954,174.32z"/>
			</g>
			<g>
				<path style="fill:#6DE0F6;" d="M312.892,206.516l41.982-24.283c0.384-0.222,0.695-0.816,0.695-1.328v-0.689
					c0-0.512-0.311-0.747-0.695-0.526l-41.982,24.283c-0.384,0.222-0.695,0.817-0.695,1.329v0.689
					C312.196,206.502,312.508,206.738,312.892,206.516z"/>
				<path style="fill:#267FE5;" d="M353.954,181.708c0.384-0.222,0.695-0.817,0.695-1.329v-0.56l0.224-0.129
					c0.384-0.222,0.695,0.014,0.695,0.526v0.689c0,0.512-0.311,1.107-0.695,1.329l-41.982,24.283
					c-0.384,0.222-0.695-0.014-0.695-0.526v-0.129L353.954,181.708z"/>
			</g>
			<g>
				<path style="fill:#6DE0F6;" d="M312.892,213.904l41.982-24.283c0.384-0.222,0.695-0.817,0.695-1.329v-0.689
					c0-0.512-0.311-0.747-0.695-0.526l-41.982,24.283c-0.384,0.222-0.695,0.816-0.695,1.328v0.689
					C312.196,213.891,312.508,214.126,312.892,213.904z"/>
				<path style="fill:#267FE5;" d="M353.954,189.096c0.384-0.222,0.695-0.817,0.695-1.329v-0.56l0.224-0.129
					c0.384-0.222,0.695,0.014,0.695,0.526v0.689c0,0.512-0.311,1.107-0.695,1.329l-41.982,24.283
					c-0.384,0.222-0.695-0.014-0.695-0.526v-0.129L353.954,189.096z"/>
			</g>
			<g>
				<path style="fill:#6DE0F6;" d="M312.892,221.293l41.982-24.283c0.384-0.222,0.695-0.816,0.695-1.329v-0.689
					c0-0.512-0.311-0.747-0.695-0.526l-41.982,24.283c-0.384,0.222-0.695,0.816-0.695,1.328v0.689
					C312.196,221.279,312.508,221.514,312.892,221.293z"/>
				<path style="fill:#267FE5;" d="M353.954,196.485c0.384-0.222,0.695-0.817,0.695-1.329v-0.56l0.224-0.129
					c0.384-0.222,0.695,0.014,0.695,0.526v0.689c0,0.512-0.311,1.107-0.695,1.329l-41.982,24.283
					c-0.384,0.222-0.695-0.014-0.695-0.526v-0.129L353.954,196.485z"/>
			</g>
			<g>
				<path style="fill:#6DE0F6;" d="M312.892,228.681l41.982-24.283c0.384-0.222,0.695-0.816,0.695-1.329v-0.689
					c0-0.512-0.311-0.747-0.695-0.526l-41.982,24.283c-0.384,0.222-0.695,0.816-0.695,1.329v0.689
					C312.196,228.667,312.508,228.903,312.892,228.681z"/>
				<path style="fill:#267FE5;" d="M353.954,203.873c0.384-0.222,0.695-0.817,0.695-1.329v-0.56l0.224-0.129
					c0.384-0.222,0.695,0.014,0.695,0.526v0.689c0,0.512-0.311,1.107-0.695,1.329l-41.982,24.282
					c-0.384,0.222-0.695-0.014-0.695-0.526v-0.129L353.954,203.873z"/>
			</g>
			<g>
				<path style="fill:#6DE0F6;" d="M312.892,236.069l41.982-24.283c0.384-0.222,0.695-0.816,0.695-1.328v-0.689
					c0-0.512-0.311-0.747-0.695-0.526l-41.982,24.283c-0.384,0.222-0.695,0.816-0.695,1.329v0.689
					C312.196,236.056,312.508,236.291,312.892,236.069z"/>
				<path style="fill:#267FE5;" d="M353.954,211.262c0.384-0.222,0.695-0.817,0.695-1.329v-0.56l0.224-0.129
					c0.384-0.222,0.695,0.014,0.695,0.526v0.689c0,0.512-0.311,1.107-0.695,1.329l-41.982,24.283
					c-0.384,0.222-0.695-0.014-0.695-0.526v-0.129L353.954,211.262z"/>
			</g>
		</g>
		<g>
			<g>
				<circle style="fill:#6DE0F6;" cx="304.097" cy="178.164" r="1.127"/>
				<path style="fill:#267FE5;" d="M304.097,178.868c-0.55,0-1.007-0.394-1.106-0.915c-0.013,0.069-0.021,0.139-0.021,0.211
					c0,0.622,0.505,1.127,1.127,1.127c0.622,0,1.127-0.505,1.127-1.127c0-0.072-0.008-0.143-0.021-0.211
					C305.104,178.474,304.647,178.868,304.097,178.868z"/>
			</g>
			<g>
				<circle style="fill:#6DE0F6;" cx="304.097" cy="185.552" r="1.127"/>
				<path style="fill:#267FE5;" d="M304.097,186.257c-0.55,0-1.007-0.394-1.106-0.915c-0.013,0.069-0.021,0.139-0.021,0.211
					c0,0.622,0.505,1.127,1.127,1.127c0.622,0,1.127-0.504,1.127-1.127c0-0.072-0.008-0.143-0.021-0.211
					C305.104,185.862,304.647,186.257,304.097,186.257z"/>
			</g>
			<g>
				<circle style="fill:#6DE0F6;" cx="304.097" cy="192.941" r="1.127"/>
				<path style="fill:#267FE5;" d="M304.097,193.645c-0.55,0-1.007-0.394-1.106-0.915c-0.013,0.069-0.021,0.139-0.021,0.211
					c0,0.622,0.505,1.127,1.127,1.127c0.622,0,1.127-0.505,1.127-1.127c0-0.072-0.008-0.143-0.021-0.211
					C305.104,193.251,304.647,193.645,304.097,193.645z"/>
			</g>
			<g>
				<circle style="fill:#6DE0F6;" cx="304.097" cy="200.329" r="1.127"/>
				<path style="fill:#267FE5;" d="M304.097,201.033c-0.55,0-1.007-0.394-1.106-0.915c-0.013,0.069-0.021,0.139-0.021,0.211
					c0,0.622,0.505,1.127,1.127,1.127c0.622,0,1.127-0.505,1.127-1.127c0-0.072-0.008-0.143-0.021-0.211
					C305.104,200.639,304.647,201.033,304.097,201.033z"/>
			</g>
			<g>
				<circle style="fill:#6DE0F6;" cx="304.097" cy="207.717" r="1.127"/>
				<path style="fill:#267FE5;" d="M304.097,208.422c-0.55,0-1.007-0.394-1.106-0.916c-0.013,0.069-0.021,0.139-0.021,0.211
					c0,0.622,0.505,1.127,1.127,1.127c0.622,0,1.127-0.505,1.127-1.127c0-0.072-0.008-0.143-0.021-0.211
					C305.104,208.027,304.647,208.422,304.097,208.422z"/>
			</g>
			<g>
				<circle style="fill:#6DE0F6;" cx="304.097" cy="215.106" r="1.127"/>
				<path style="fill:#267FE5;" d="M304.097,215.81c-0.55,0-1.007-0.394-1.106-0.915c-0.013,0.069-0.021,0.139-0.021,0.211
					c0,0.622,0.505,1.127,1.127,1.127c0.622,0,1.127-0.505,1.127-1.127c0-0.072-0.008-0.143-0.021-0.211
					C305.104,215.416,304.647,215.81,304.097,215.81z"/>
			</g>
			<g>
				<circle style="fill:#6DE0F6;" cx="304.097" cy="222.494" r="1.127"/>
				<path style="fill:#267FE5;" d="M304.097,223.199c-0.55,0-1.007-0.394-1.106-0.915c-0.013,0.069-0.021,0.139-0.021,0.211
					c0,0.622,0.505,1.127,1.127,1.127c0.622,0,1.127-0.505,1.127-1.127c0-0.072-0.008-0.143-0.021-0.211
					C305.104,222.804,304.647,223.199,304.097,223.199z"/>
			</g>
			<g>
				<circle style="fill:#6DE0F6;" cx="304.097" cy="229.883" r="1.127"/>
				<path style="fill:#267FE5;" d="M304.097,230.587c-0.55,0-1.007-0.394-1.106-0.915c-0.013,0.069-0.021,0.139-0.021,0.211
					c0,0.622,0.505,1.127,1.127,1.127c0.622,0,1.127-0.505,1.127-1.127c0-0.072-0.008-0.143-0.021-0.211
					C305.104,230.193,304.647,230.587,304.097,230.587z"/>
			</g>
			<g>
				<circle style="fill:#6DE0F6;" cx="304.097" cy="237.271" r="1.127"/>
				<path style="fill:#267FE5;" d="M304.097,237.975c-0.55,0-1.007-0.394-1.106-0.915c-0.013,0.069-0.021,0.139-0.021,0.211
					c0,0.622,0.505,1.127,1.127,1.127c0.622,0,1.127-0.505,1.127-1.127c0-0.072-0.008-0.143-0.021-0.211
					C305.104,237.581,304.647,237.975,304.097,237.975z"/>
			</g>
		</g>
	</g>
	<g>
		<g>
			<path style="fill:#161242;" d="M287.987,226.465c-0.225,0-0.467-0.071-0.711-0.212l-1.68-0.97
				c-0.914-0.527-1.658-1.941-1.658-3.152v-45.347c0-0.671,0.229-1.189,0.629-1.42c0.341-0.197,0.767-0.166,1.2,0.083l1.681,0.97
				c0.914,0.528,1.658,1.942,1.658,3.152v45.347c0,0.671-0.229,1.189-0.629,1.42C288.327,226.422,288.162,226.465,287.987,226.465z
				 M285.056,175.58c-0.116,0-0.224,0.027-0.319,0.082c-0.291,0.168-0.458,0.577-0.458,1.123v45.347
				c0,1.101,0.667,2.382,1.486,2.855l1.681,0.97c0.322,0.186,0.626,0.215,0.857,0.083c0.291-0.168,0.458-0.577,0.458-1.123V179.57
				c0-1.101-0.667-2.382-1.486-2.855l-1.68-0.97C285.405,175.635,285.222,175.58,285.056,175.58z"/>
		</g>
	</g>
</g>
<g>
	<g>
		<path style="fill:#0C0F38;" d="M219.296,306.489l-48.485-27.993c-3.447-1.99-3.015-5.467,0.966-7.765l46.552-26.877
			c3.981-2.298,10.002-2.548,13.449-0.557l48.485,27.993c3.447,1.99,3.015,5.467-0.966,7.765l-46.552,26.877
			C228.765,308.23,222.744,308.48,219.296,306.489z"/>
		
			<linearGradient id="SVGID_00000026143810736091416140000017688532512210365574_" gradientUnits="userSpaceOnUse" x1="156.0953" y1="230.6365" x2="298.3918" y2="230.6365">
			<stop  offset="0" style="stop-color:#A31FA9"/>
			<stop  offset="0.0668" style="stop-color:#8B17A0"/>
			<stop  offset="0.1494" style="stop-color:#740F98"/>
			<stop  offset="0.2393" style="stop-color:#640A92"/>
			<stop  offset="0.3408" style="stop-color:#5B078F"/>
			<stop  offset="0.4785" style="stop-color:#58068E"/>
			<stop  offset="0.6264" style="stop-color:#4D22A3"/>
			<stop  offset="0.9436" style="stop-color:#3168DA"/>
			<stop  offset="1" style="stop-color:#2C75E4"/>
		</linearGradient>
		<path style="fill:url(#SVGID_00000026143810736091416140000017688532512210365574_);" d="M283.938,187.903h-24.613l-27.399-15.819
			c-3.529-2.037-9.692-1.782-13.767,0.571l-26.41,15.248h-24.601v68.943h0.008c-0.1,1.379,0.669,2.71,2.364,3.688l49.629,28.654
			c3.529,2.037,9.692,1.782,13.767-0.571l47.651-27.511c2.117-1.222,3.244-2.769,3.353-4.26h0.018V187.903z"/>
		<path style="fill:#D4088C;" d="M173.381,187.903h-6.233v68.943h0.008c-0.071,0.978,0.305,1.93,1.129,2.751
			c-0.526-0.702-0.766-1.476-0.708-2.267h-0.008v-68.943h6.298C173.712,188.22,173.549,188.058,173.381,187.903z"/>
		<path style="fill:#6DE0F6;" d="M276.06,187.903c-0.045,0.138-0.093,0.276-0.142,0.415h7.577v68.943h-0.018
			c-0.067,0.924-0.528,1.869-1.371,2.746c1.121-0.989,1.735-2.088,1.813-3.161h0.018v-68.943H276.06z"/>
		<polygon style="opacity:0.5;fill:#D4088C;" points="184.533,269.201 184.533,189.235 175.595,189.235 175.595,264.041 		"/>
		<polygon style="opacity:0.3;fill:#D4088C;" points="190.021,272.37 190.021,194.606 187.579,194.606 187.579,270.96 		"/>
		<polygon style="opacity:0.15;fill:#D4088C;" points="194.392,274.893 194.392,195.545 191.95,195.545 191.95,273.483 		"/>
		
			<linearGradient id="SVGID_00000000939690439264306820000000577527986017346234_" gradientUnits="userSpaceOnUse" x1="499.2043" y1="791.1273" x2="566.3258" y2="732.9983" gradientTransform="matrix(0.866 0.5 -1 0.5774 525.0016 -518.4943)">
			<stop  offset="0" style="stop-color:#267FE5"/>
			<stop  offset="0.1699" style="stop-color:#2C87E7"/>
			<stop  offset="0.441" style="stop-color:#3D9FEB"/>
			<stop  offset="0.7773" style="stop-color:#59C4F2"/>
			<stop  offset="1" style="stop-color:#6EE1F8"/>
		</linearGradient>
		<path style="fill:url(#SVGID_00000000939690439264306820000000577527986017346234_);" d="M219.149,220.245l-49.629-28.654
			c-3.529-2.037-3.086-5.596,0.988-7.948l47.651-27.511c4.075-2.352,10.238-2.608,13.767-0.571l49.629,28.654
			c3.529,2.037,3.086,5.596-0.988,7.948l-47.651,27.511C228.842,222.027,222.678,222.282,219.149,220.245z"/>
		<path style="fill:#6DE0F6;" d="M219.695,220.245l-49.629-28.653c-3.529-2.037-3.086-5.596,0.988-7.948l47.651-27.511
			c2.018-1.165,4.549-1.813,7.019-1.925c-2.64,0.034-5.396,0.673-7.565,1.925l-47.651,27.511c-4.075,2.352-4.517,5.911-0.988,7.948
			l49.629,28.653c1.781,1.028,4.232,1.469,6.748,1.354C223.577,221.63,221.346,221.198,219.695,220.245z"/>
		<path style="fill:#6DE0F6;" d="M281.555,184.215l-49.629-28.654c-1.783-1.03-4.24-1.469-6.76-1.353
			c2.292-0.019,4.492,0.411,6.124,1.353l49.629,28.654c3.529,2.037,3.086,5.596-0.988,7.948l-47.651,27.511
			c-2.015,1.164-4.542,1.81-7.008,1.924c2.664-0.022,5.453-0.659,7.643-1.924l47.651-27.511
			C284.641,189.811,285.084,186.252,281.555,184.215z"/>
		<path style="fill:#6DE0F6;" d="M225.232,213.172c-1.701,0-3.324-0.343-4.536-1.042l-36.949-21.332
			c-1.199-0.692-1.859-1.658-1.859-2.719c0-1.269,0.946-2.544,2.595-3.496l35.476-20.482c3.076-1.777,7.75-1.966,10.42-0.425
			l36.949,21.332c1.199,0.692,1.859,1.658,1.859,2.719c0,1.269-0.946,2.544-2.595,3.496l-35.476,20.482
			C229.436,212.675,227.279,213.172,225.232,213.172z M225.843,162.971c-1.985,0-4.08,0.484-5.714,1.427l-35.476,20.482
			c-1.54,0.889-2.424,2.056-2.424,3.199c0,0.934,0.599,1.794,1.688,2.422l36.949,21.332c2.576,1.488,7.097,1.297,10.079-0.425
			l35.476-20.482c1.54-0.889,2.424-2.056,2.424-3.199c0-0.934-0.6-1.794-1.688-2.422l-36.949-21.332
			C229.044,163.3,227.481,162.971,225.843,162.971z"/>
		<g>
			<g>
				<path style="fill:#6DE0F6;" d="M234.332,225.138l41.981-24.283c0.384-0.222,0.695-0.816,0.695-1.329v-0.689
					c0-0.512-0.311-0.747-0.695-0.526l-41.981,24.283c-0.384,0.222-0.695,0.816-0.695,1.329v0.689
					C233.636,225.125,233.948,225.36,234.332,225.138z"/>
				<path style="fill:#267FE5;" d="M275.394,200.33c0.384-0.222,0.695-0.817,0.695-1.329v-0.56l0.224-0.129
					c0.384-0.222,0.695,0.014,0.695,0.526v0.689c0,0.512-0.311,1.107-0.695,1.329l-41.982,24.283
					c-0.384,0.222-0.695-0.014-0.695-0.526v-0.129L275.394,200.33z"/>
			</g>
			<g>
				<path style="fill:#6DE0F6;" d="M234.332,232.527l41.981-24.283c0.384-0.222,0.695-0.816,0.695-1.328v-0.689
					c0-0.512-0.311-0.747-0.695-0.526l-41.981,24.283c-0.384,0.222-0.695,0.816-0.695,1.329v0.689
					C233.636,232.513,233.948,232.748,234.332,232.527z"/>
				<path style="fill:#267FE5;" d="M275.394,207.719c0.384-0.222,0.695-0.817,0.695-1.329v-0.56l0.224-0.129
					c0.384-0.222,0.695,0.014,0.695,0.526v0.689c0,0.512-0.311,1.107-0.695,1.329l-41.982,24.283
					c-0.384,0.222-0.695-0.014-0.695-0.526v-0.129L275.394,207.719z"/>
			</g>
			<g>
				<path style="fill:#6DE0F6;" d="M234.332,239.915l41.981-24.283c0.384-0.222,0.695-0.816,0.695-1.328v-0.689
					c0-0.512-0.311-0.747-0.695-0.526l-41.981,24.283c-0.384,0.222-0.695,0.817-0.695,1.329v0.689
					C233.636,239.901,233.948,240.137,234.332,239.915z"/>
				<path style="fill:#267FE5;" d="M275.394,215.107c0.384-0.222,0.695-0.817,0.695-1.329v-0.56l0.224-0.129
					c0.384-0.222,0.695,0.014,0.695,0.526v0.689c0,0.512-0.311,1.107-0.695,1.329l-41.982,24.283
					c-0.384,0.222-0.695-0.014-0.695-0.526v-0.129L275.394,215.107z"/>
			</g>
			<g>
				<path style="fill:#6DE0F6;" d="M234.332,247.303l41.981-24.283c0.384-0.222,0.695-0.817,0.695-1.329v-0.689
					c0-0.512-0.311-0.747-0.695-0.526l-41.981,24.283c-0.384,0.222-0.695,0.816-0.695,1.328v0.689
					C233.636,247.29,233.948,247.525,234.332,247.303z"/>
				<path style="fill:#267FE5;" d="M275.394,222.496c0.384-0.222,0.695-0.817,0.695-1.329v-0.56l0.224-0.129
					c0.384-0.222,0.695,0.014,0.695,0.526v0.689c0,0.512-0.311,1.107-0.695,1.329l-41.982,24.283
					c-0.384,0.222-0.695-0.014-0.695-0.526v-0.129L275.394,222.496z"/>
			</g>
			<g>
				<path style="fill:#6DE0F6;" d="M234.332,254.692l41.981-24.283c0.384-0.222,0.695-0.816,0.695-1.329v-0.689
					c0-0.512-0.311-0.747-0.695-0.526l-41.981,24.283c-0.384,0.222-0.695,0.816-0.695,1.328v0.689
					C233.636,254.678,233.948,254.913,234.332,254.692z"/>
				<path style="fill:#267FE5;" d="M275.394,229.884c0.384-0.222,0.695-0.817,0.695-1.329v-0.56l0.224-0.129
					c0.384-0.222,0.695,0.014,0.695,0.526v0.689c0,0.512-0.311,1.107-0.695,1.329l-41.982,24.283
					c-0.384,0.222-0.695-0.014-0.695-0.526v-0.129L275.394,229.884z"/>
			</g>
			<g>
				<path style="fill:#6DE0F6;" d="M234.332,262.08l41.981-24.283c0.384-0.222,0.695-0.816,0.695-1.329v-0.689
					c0-0.512-0.311-0.747-0.695-0.526l-41.981,24.283c-0.384,0.222-0.695,0.816-0.695,1.328v0.689
					C233.636,262.067,233.948,262.302,234.332,262.08z"/>
				<path style="fill:#267FE5;" d="M275.394,237.272c0.384-0.222,0.695-0.817,0.695-1.329v-0.56l0.224-0.129
					c0.384-0.222,0.695,0.014,0.695,0.526v0.689c0,0.512-0.311,1.107-0.695,1.329l-41.982,24.283
					c-0.384,0.222-0.695-0.014-0.695-0.526v-0.129L275.394,237.272z"/>
			</g>
			<g>
				<path style="fill:#6DE0F6;" d="M234.332,269.469l41.981-24.283c0.384-0.222,0.695-0.816,0.695-1.328v-0.689
					c0-0.512-0.311-0.747-0.695-0.526l-41.981,24.283c-0.384,0.222-0.695,0.816-0.695,1.328v0.689
					C233.636,269.455,233.948,269.69,234.332,269.469z"/>
				<path style="fill:#267FE5;" d="M275.394,244.661c0.384-0.222,0.695-0.817,0.695-1.329v-0.56l0.224-0.129
					c0.384-0.222,0.695,0.014,0.695,0.526v0.689c0,0.512-0.311,1.107-0.695,1.329l-41.982,24.283
					c-0.384,0.222-0.695-0.014-0.695-0.526v-0.129L275.394,244.661z"/>
			</g>
			<g>
				<path style="fill:#6DE0F6;" d="M234.332,276.857l41.981-24.283c0.384-0.222,0.695-0.816,0.695-1.328v-0.689
					c0-0.512-0.311-0.747-0.695-0.526l-41.981,24.283c-0.384,0.222-0.695,0.816-0.695,1.328v0.689
					C233.636,276.843,233.948,277.079,234.332,276.857z"/>
				<path style="fill:#267FE5;" d="M275.394,252.049c0.384-0.222,0.695-0.817,0.695-1.329v-0.56l0.224-0.129
					c0.384-0.222,0.695,0.014,0.695,0.526v0.689c0,0.512-0.311,1.107-0.695,1.329l-41.982,24.283
					c-0.384,0.222-0.695-0.014-0.695-0.526v-0.129L275.394,252.049z"/>
			</g>
			<g>
				<path style="fill:#6DE0F6;" d="M234.332,284.245l41.981-24.283c0.384-0.222,0.695-0.816,0.695-1.329v-0.689
					c0-0.512-0.311-0.747-0.695-0.526l-41.981,24.283c-0.384,0.222-0.695,0.816-0.695,1.329v0.689
					C233.636,284.232,233.948,284.467,234.332,284.245z"/>
				<path style="fill:#267FE5;" d="M275.394,259.438c0.384-0.222,0.695-0.817,0.695-1.329v-0.56l0.224-0.129
					c0.384-0.222,0.695,0.014,0.695,0.526v0.689c0,0.512-0.311,1.107-0.695,1.329l-41.982,24.283
					c-0.384,0.222-0.695-0.014-0.695-0.526v-0.129L275.394,259.438z"/>
			</g>
		</g>
		<g>
			<g>
				<circle style="fill:#6DE0F6;" cx="225.538" cy="226.34" r="1.127"/>
				<path style="fill:#267FE5;" d="M225.538,227.044c-0.55,0-1.006-0.394-1.106-0.915c-0.013,0.069-0.021,0.139-0.021,0.211
					c0,0.622,0.505,1.127,1.127,1.127s1.127-0.505,1.127-1.127c0-0.072-0.008-0.143-0.021-0.211
					C226.544,226.65,226.087,227.044,225.538,227.044z"/>
			</g>
			<g>
				<circle style="fill:#6DE0F6;" cx="225.538" cy="233.728" r="1.127"/>
				<path style="fill:#267FE5;" d="M225.538,234.432c-0.55,0-1.006-0.394-1.106-0.915c-0.013,0.069-0.021,0.139-0.021,0.211
					c0,0.622,0.505,1.127,1.127,1.127s1.127-0.505,1.127-1.127c0-0.072-0.008-0.143-0.021-0.211
					C226.544,234.038,226.087,234.432,225.538,234.432z"/>
			</g>
			<g>
				<circle style="fill:#6DE0F6;" cx="225.538" cy="241.117" r="1.127"/>
				<path style="fill:#267FE5;" d="M225.538,241.821c-0.55,0-1.006-0.394-1.106-0.916c-0.013,0.069-0.021,0.139-0.021,0.211
					c0,0.622,0.505,1.127,1.127,1.127s1.127-0.505,1.127-1.127c0-0.072-0.008-0.143-0.021-0.211
					C226.544,241.426,226.087,241.821,225.538,241.821z"/>
			</g>
			<g>
				<circle style="fill:#6DE0F6;" cx="225.538" cy="248.505" r="1.127"/>
				<path style="fill:#267FE5;" d="M225.538,249.209c-0.55,0-1.006-0.394-1.106-0.916c-0.013,0.069-0.021,0.139-0.021,0.211
					c0,0.622,0.505,1.127,1.127,1.127s1.127-0.505,1.127-1.127c0-0.072-0.008-0.143-0.021-0.211
					C226.544,248.815,226.087,249.209,225.538,249.209z"/>
			</g>
			<g>
				<circle style="fill:#6DE0F6;" cx="225.538" cy="255.893" r="1.127"/>
				<path style="fill:#267FE5;" d="M225.538,256.598c-0.55,0-1.006-0.394-1.106-0.915c-0.013,0.069-0.021,0.139-0.021,0.211
					c0,0.622,0.505,1.127,1.127,1.127s1.127-0.504,1.127-1.127c0-0.072-0.008-0.143-0.021-0.211
					C226.544,256.203,226.087,256.598,225.538,256.598z"/>
			</g>
			<g>
				<circle style="fill:#6DE0F6;" cx="225.538" cy="263.282" r="1.127"/>
				<path style="fill:#267FE5;" d="M225.538,263.986c-0.55,0-1.006-0.394-1.106-0.916c-0.013,0.069-0.021,0.139-0.021,0.211
					c0,0.622,0.505,1.127,1.127,1.127s1.127-0.504,1.127-1.127c0-0.072-0.008-0.143-0.021-0.211
					C226.544,263.592,226.087,263.986,225.538,263.986z"/>
			</g>
			<g>
				<circle style="fill:#6DE0F6;" cx="225.538" cy="270.67" r="1.127"/>
				<path style="fill:#267FE5;" d="M225.538,271.375c-0.55,0-1.006-0.394-1.106-0.915c-0.013,0.069-0.021,0.139-0.021,0.211
					c0,0.622,0.505,1.127,1.127,1.127s1.127-0.504,1.127-1.127c0-0.072-0.008-0.143-0.021-0.211
					C226.544,270.98,226.087,271.375,225.538,271.375z"/>
			</g>
			<g>
				<circle style="fill:#6DE0F6;" cx="225.538" cy="278.059" r="1.127"/>
				<path style="fill:#267FE5;" d="M225.538,278.763c-0.55,0-1.006-0.394-1.106-0.915c-0.013,0.069-0.021,0.139-0.021,0.211
					c0,0.622,0.505,1.127,1.127,1.127s1.127-0.504,1.127-1.127c0-0.072-0.008-0.143-0.021-0.211
					C226.544,278.368,226.087,278.763,225.538,278.763z"/>
			</g>
			<g>
				<circle style="fill:#6DE0F6;" cx="225.538" cy="285.447" r="1.127"/>
				<path style="fill:#267FE5;" d="M225.538,286.151c-0.55,0-1.006-0.394-1.106-0.915c-0.013,0.069-0.021,0.139-0.021,0.211
					c0,0.622,0.505,1.127,1.127,1.127s1.127-0.505,1.127-1.127c0-0.072-0.008-0.143-0.021-0.211
					C226.544,285.757,226.087,286.151,225.538,286.151z"/>
			</g>
		</g>
	</g>
	<g>
		<g>
			<path style="fill:#161242;" d="M209.427,274.641c-0.225,0-0.467-0.071-0.711-0.212l-1.68-0.97
				c-0.914-0.527-1.658-1.941-1.658-3.152v-45.346c0-0.672,0.229-1.189,0.629-1.42c0.341-0.197,0.767-0.166,1.2,0.083l1.68,0.97
				c0.914,0.528,1.658,1.942,1.658,3.152v45.347c0,0.672-0.229,1.189-0.629,1.42C209.767,274.598,209.602,274.641,209.427,274.641z
				 M206.497,223.756c-0.117,0-0.224,0.027-0.319,0.082c-0.291,0.168-0.458,0.577-0.458,1.123v45.346
				c0,1.101,0.667,2.382,1.486,2.855l1.68,0.97c0.322,0.186,0.626,0.216,0.857,0.083c0.291-0.168,0.458-0.577,0.458-1.123v-45.347
				c0-1.101-0.667-2.382-1.486-2.855l-1.68-0.97C206.846,223.811,206.662,223.756,206.497,223.756z"/>
		</g>
	</g>
</g>
<g>
	<g>
		<path style="fill:#0C0F38;" d="M376.416,305.181l-48.485-27.993c-3.447-1.99-3.015-5.467,0.966-7.765l46.552-26.877
			c3.981-2.298,10.002-2.548,13.45-0.557l48.485,27.993c3.447,1.99,3.015,5.467-0.966,7.765l-46.552,26.877
			C385.885,306.922,379.863,307.172,376.416,305.181z"/>
		
			<linearGradient id="SVGID_00000016759366393687170320000006334458904988884379_" gradientUnits="userSpaceOnUse" x1="313.2149" y1="229.3286" x2="455.5113" y2="229.3286">
			<stop  offset="0" style="stop-color:#A31FA9"/>
			<stop  offset="0.0668" style="stop-color:#8B17A0"/>
			<stop  offset="0.1494" style="stop-color:#740F98"/>
			<stop  offset="0.2393" style="stop-color:#640A92"/>
			<stop  offset="0.3408" style="stop-color:#5B078F"/>
			<stop  offset="0.4785" style="stop-color:#58068E"/>
			<stop  offset="0.6264" style="stop-color:#4D22A3"/>
			<stop  offset="0.9436" style="stop-color:#3168DA"/>
			<stop  offset="1" style="stop-color:#2C75E4"/>
		</linearGradient>
		<path style="fill:url(#SVGID_00000016759366393687170320000006334458904988884379_);" d="M441.057,186.595h-24.613l-27.399-15.819
			c-3.529-2.037-9.692-1.782-13.767,0.571l-26.41,15.248h-24.601v68.943h0.008c-0.1,1.379,0.669,2.709,2.364,3.688l49.629,28.654
			c3.529,2.037,9.692,1.782,13.767-0.571l47.651-27.511c2.117-1.222,3.244-2.769,3.352-4.26h0.018V186.595z"/>
		<path style="fill:#D4088C;" d="M330.5,186.595h-6.233v68.943h0.008c-0.071,0.978,0.305,1.93,1.129,2.751
			c-0.527-0.703-0.766-1.476-0.708-2.267h-0.008v-68.943h6.298C330.831,186.912,330.668,186.75,330.5,186.595z"/>
		<path style="fill:#6DE0F6;" d="M433.179,186.595c-0.045,0.138-0.093,0.276-0.141,0.415h7.577v68.943h-0.018
			c-0.067,0.924-0.528,1.869-1.371,2.746c1.121-0.989,1.735-2.088,1.813-3.16h0.018v-68.943H433.179z"/>
		<polygon style="opacity:0.5;fill:#D4088C;" points="341.652,267.893 341.652,187.927 332.714,187.927 332.714,262.733 		"/>
		<polygon style="opacity:0.3;fill:#D4088C;" points="347.141,271.062 347.141,193.298 344.699,193.298 344.699,269.652 		"/>
		<polygon style="opacity:0.15;fill:#D4088C;" points="351.511,273.586 351.511,194.237 349.069,194.237 349.069,272.176 		"/>
		
			<linearGradient id="SVGID_00000097466975835320760720000009430544430036329093_" gradientUnits="userSpaceOnUse" x1="588.6146" y1="711.4371" x2="655.7361" y2="653.3082" gradientTransform="matrix(0.866 0.5 -1 0.5774 525.0016 -518.4943)">
			<stop  offset="0" style="stop-color:#267FE5"/>
			<stop  offset="0.1699" style="stop-color:#2C87E7"/>
			<stop  offset="0.441" style="stop-color:#3D9FEB"/>
			<stop  offset="0.7773" style="stop-color:#59C4F2"/>
			<stop  offset="1" style="stop-color:#6EE1F8"/>
		</linearGradient>
		<path style="fill:url(#SVGID_00000097466975835320760720000009430544430036329093_);" d="M376.269,218.937l-49.629-28.653
			c-3.529-2.037-3.086-5.596,0.988-7.948l47.651-27.511c4.075-2.353,10.238-2.608,13.767-0.571l49.629,28.654
			c3.529,2.037,3.086,5.596-0.988,7.948l-47.651,27.511C385.961,220.719,379.797,220.975,376.269,218.937z"/>
		<path style="fill:#6DE0F6;" d="M376.815,218.937l-49.629-28.654c-3.529-2.037-3.086-5.596,0.988-7.948l47.651-27.511
			c2.018-1.165,4.549-1.813,7.019-1.925c-2.64,0.034-5.396,0.673-7.565,1.925l-47.651,27.511c-4.075,2.352-4.517,5.911-0.988,7.948
			l49.629,28.654c1.781,1.028,4.232,1.469,6.748,1.354C380.697,220.322,378.465,219.89,376.815,218.937z"/>
		<path style="fill:#6DE0F6;" d="M438.675,182.907l-49.629-28.654c-1.783-1.03-4.24-1.469-6.759-1.353
			c2.292-0.019,4.492,0.411,6.124,1.353l49.629,28.654c3.529,2.037,3.086,5.596-0.988,7.948L389.4,218.367
			c-2.015,1.164-4.542,1.81-7.008,1.924c2.664-0.022,5.453-0.659,7.643-1.924l47.651-27.511
			C441.761,188.503,442.203,184.944,438.675,182.907z"/>
		<path style="fill:#6DE0F6;" d="M382.352,211.864c-1.701,0-3.324-0.343-4.536-1.042l-36.949-21.332
			c-1.199-0.692-1.859-1.658-1.859-2.719c0-1.269,0.946-2.543,2.595-3.496l35.476-20.482c3.076-1.777,7.75-1.966,10.42-0.425
			l36.949,21.332c1.199,0.692,1.859,1.658,1.859,2.719c0,1.269-0.946,2.544-2.595,3.496l-35.476,20.482
			C386.556,211.367,384.398,211.864,382.352,211.864z M382.963,161.663c-1.985,0-4.08,0.483-5.714,1.427l-35.476,20.482
			c-1.54,0.889-2.424,2.056-2.424,3.199c0,0.934,0.599,1.794,1.688,2.422l36.949,21.332c2.576,1.488,7.097,1.297,10.079-0.425
			l35.476-20.482c1.54-0.889,2.424-2.056,2.424-3.199c0-0.934-0.6-1.794-1.688-2.422l-36.949-21.332
			C386.163,161.992,384.601,161.663,382.963,161.663z"/>
		<g>
			<g>
				<path style="fill:#6DE0F6;" d="M391.451,223.83l41.982-24.283c0.384-0.222,0.695-0.816,0.695-1.329v-0.689
					c0-0.512-0.311-0.747-0.695-0.526l-41.982,24.283c-0.384,0.222-0.695,0.817-0.695,1.329v0.689
					C390.756,223.817,391.067,224.052,391.451,223.83z"/>
				<path style="fill:#267FE5;" d="M432.514,199.023c0.384-0.222,0.695-0.817,0.695-1.329v-0.56l0.224-0.129
					c0.384-0.222,0.695,0.014,0.695,0.526v0.689c0,0.512-0.311,1.107-0.695,1.329l-41.982,24.283
					c-0.384,0.222-0.695-0.014-0.695-0.526v-0.129L432.514,199.023z"/>
			</g>
			<g>
				<path style="fill:#6DE0F6;" d="M391.451,231.219l41.982-24.283c0.384-0.222,0.695-0.816,0.695-1.329v-0.689
					c0-0.512-0.311-0.747-0.695-0.526l-41.982,24.283c-0.384,0.222-0.695,0.817-0.695,1.329v0.689
					C390.756,231.205,391.067,231.44,391.451,231.219z"/>
				<path style="fill:#267FE5;" d="M432.514,206.411c0.384-0.222,0.695-0.817,0.695-1.329v-0.56l0.224-0.129
					c0.384-0.222,0.695,0.014,0.695,0.526v0.689c0,0.512-0.311,1.107-0.695,1.329l-41.982,24.283
					c-0.384,0.222-0.695-0.014-0.695-0.526v-0.129L432.514,206.411z"/>
			</g>
			<g>
				<path style="fill:#6DE0F6;" d="M391.451,238.607l41.982-24.283c0.384-0.222,0.695-0.816,0.695-1.329v-0.689
					c0-0.512-0.311-0.747-0.695-0.526l-41.982,24.283c-0.384,0.222-0.695,0.817-0.695,1.329v0.689
					C390.756,238.594,391.067,238.829,391.451,238.607z"/>
				<path style="fill:#267FE5;" d="M432.514,213.799c0.384-0.222,0.695-0.817,0.695-1.329v-0.56l0.224-0.129
					c0.384-0.222,0.695,0.014,0.695,0.526v0.689c0,0.512-0.311,1.107-0.695,1.329l-41.982,24.283
					c-0.384,0.222-0.695-0.014-0.695-0.526v-0.129L432.514,213.799z"/>
			</g>
			<g>
				<path style="fill:#6DE0F6;" d="M391.451,245.995l41.982-24.283c0.384-0.222,0.695-0.817,0.695-1.329v-0.689
					c0-0.512-0.311-0.747-0.695-0.526l-41.982,24.283c-0.384,0.222-0.695,0.817-0.695,1.329v0.689
					C390.756,245.982,391.067,246.217,391.451,245.995z"/>
				<path style="fill:#267FE5;" d="M432.514,221.188c0.384-0.222,0.695-0.817,0.695-1.329v-0.56l0.224-0.129
					c0.384-0.222,0.695,0.014,0.695,0.526v0.689c0,0.512-0.311,1.107-0.695,1.329l-41.982,24.283
					c-0.384,0.222-0.695-0.014-0.695-0.526v-0.129L432.514,221.188z"/>
			</g>
			<g>
				<path style="fill:#6DE0F6;" d="M391.451,253.384l41.982-24.283c0.384-0.222,0.695-0.817,0.695-1.329v-0.689
					c0-0.512-0.311-0.747-0.695-0.526l-41.982,24.283c-0.384,0.222-0.695,0.817-0.695,1.329v0.689
					C390.756,253.37,391.067,253.606,391.451,253.384z"/>
				<path style="fill:#267FE5;" d="M432.514,228.576c0.384-0.222,0.695-0.817,0.695-1.329v-0.56l0.224-0.129
					c0.384-0.222,0.695,0.014,0.695,0.526v0.689c0,0.512-0.311,1.107-0.695,1.329l-41.982,24.283
					c-0.384,0.222-0.695-0.014-0.695-0.526v-0.129L432.514,228.576z"/>
			</g>
			<g>
				<path style="fill:#6DE0F6;" d="M391.451,260.772l41.982-24.283c0.384-0.222,0.695-0.817,0.695-1.329v-0.689
					c0-0.512-0.311-0.747-0.695-0.526l-41.982,24.283c-0.384,0.222-0.695,0.817-0.695,1.329v0.689
					C390.756,260.759,391.067,260.994,391.451,260.772z"/>
				<path style="fill:#267FE5;" d="M432.514,235.964c0.384-0.222,0.695-0.817,0.695-1.329v-0.56l0.224-0.129
					c0.384-0.222,0.695,0.014,0.695,0.526v0.689c0,0.512-0.311,1.107-0.695,1.329l-41.982,24.283
					c-0.384,0.222-0.695-0.014-0.695-0.526v-0.129L432.514,235.964z"/>
			</g>
			<g>
				<path style="fill:#6DE0F6;" d="M391.451,268.161l41.982-24.283c0.384-0.222,0.695-0.817,0.695-1.329v-0.689
					c0-0.512-0.311-0.747-0.695-0.526l-41.982,24.283c-0.384,0.222-0.695,0.817-0.695,1.329v0.689
					C390.756,268.147,391.067,268.382,391.451,268.161z"/>
				<path style="fill:#267FE5;" d="M432.514,243.353c0.384-0.222,0.695-0.817,0.695-1.329v-0.56l0.224-0.129
					c0.384-0.222,0.695,0.014,0.695,0.526v0.689c0,0.512-0.311,1.107-0.695,1.329l-41.982,24.283
					c-0.384,0.222-0.695-0.014-0.695-0.526v-0.129L432.514,243.353z"/>
			</g>
			<g>
				<path style="fill:#6DE0F6;" d="M391.451,275.549l41.982-24.283c0.384-0.222,0.695-0.817,0.695-1.329v-0.689
					c0-0.512-0.311-0.747-0.695-0.526l-41.982,24.283c-0.384,0.222-0.695,0.817-0.695,1.329v0.689
					C390.756,275.535,391.067,275.771,391.451,275.549z"/>
				<path style="fill:#267FE5;" d="M432.514,250.741c0.384-0.222,0.695-0.817,0.695-1.329v-0.56l0.224-0.129
					c0.384-0.222,0.695,0.014,0.695,0.526v0.689c0,0.512-0.311,1.107-0.695,1.329l-41.982,24.283
					c-0.384,0.222-0.695-0.014-0.695-0.526v-0.129L432.514,250.741z"/>
			</g>
			<g>
				<path style="fill:#6DE0F6;" d="M391.451,282.938l41.982-24.283c0.384-0.222,0.695-0.817,0.695-1.329v-0.689
					c0-0.512-0.311-0.747-0.695-0.526l-41.982,24.283c-0.384,0.222-0.695,0.817-0.695,1.329v0.689
					C390.756,282.924,391.067,283.159,391.451,282.938z"/>
				<path style="fill:#267FE5;" d="M432.514,258.13c0.384-0.222,0.695-0.817,0.695-1.329v-0.56l0.224-0.129
					c0.384-0.222,0.695,0.014,0.695,0.526v0.689c0,0.512-0.311,1.107-0.695,1.329l-41.982,24.283
					c-0.384,0.222-0.695-0.014-0.695-0.526v-0.129L432.514,258.13z"/>
			</g>
		</g>
		<g>
			<g>
				<circle style="fill:#6DE0F6;" cx="382.657" cy="225.032" r="1.127"/>
				<path style="fill:#267FE5;" d="M382.657,225.736c-0.55,0-1.006-0.394-1.106-0.916c-0.013,0.069-0.021,0.139-0.021,0.211
					c0,0.622,0.505,1.127,1.127,1.127c0.622,0,1.127-0.504,1.127-1.127c0-0.072-0.008-0.143-0.021-0.211
					C383.663,225.342,383.207,225.736,382.657,225.736z"/>
			</g>
			<g>
				<circle style="fill:#6DE0F6;" cx="382.657" cy="232.42" r="1.127"/>
				<path style="fill:#267FE5;" d="M382.657,233.125c-0.55,0-1.006-0.394-1.106-0.915c-0.013,0.069-0.021,0.139-0.021,0.211
					c0,0.622,0.505,1.127,1.127,1.127c0.622,0,1.127-0.504,1.127-1.127c0-0.072-0.008-0.143-0.021-0.211
					C383.663,232.73,383.207,233.125,382.657,233.125z"/>
			</g>
			<g>
				<circle style="fill:#6DE0F6;" cx="382.657" cy="239.809" r="1.127"/>
				<path style="fill:#267FE5;" d="M382.657,240.513c-0.55,0-1.006-0.395-1.106-0.916c-0.013,0.069-0.021,0.139-0.021,0.211
					c0,0.622,0.505,1.127,1.127,1.127c0.622,0,1.127-0.504,1.127-1.127c0-0.072-0.008-0.143-0.021-0.211
					C383.663,240.119,383.207,240.513,382.657,240.513z"/>
			</g>
			<g>
				<circle style="fill:#6DE0F6;" cx="382.657" cy="247.197" r="1.127"/>
				<path style="fill:#267FE5;" d="M382.657,247.902c-0.55,0-1.006-0.395-1.106-0.916c-0.013,0.069-0.021,0.139-0.021,0.211
					c0,0.622,0.505,1.127,1.127,1.127c0.622,0,1.127-0.504,1.127-1.127c0-0.072-0.008-0.143-0.021-0.211
					C383.663,247.507,383.207,247.902,382.657,247.902z"/>
			</g>
			<g>
				<circle style="fill:#6DE0F6;" cx="382.657" cy="254.586" r="1.127"/>
				<path style="fill:#267FE5;" d="M382.657,255.29c-0.55,0-1.006-0.395-1.106-0.915c-0.013,0.068-0.021,0.139-0.021,0.211
					c0,0.622,0.505,1.127,1.127,1.127c0.622,0,1.127-0.504,1.127-1.127c0-0.072-0.008-0.143-0.021-0.211
					C383.663,254.895,383.207,255.29,382.657,255.29z"/>
			</g>
			<g>
				<circle style="fill:#6DE0F6;" cx="382.657" cy="261.974" r="1.127"/>
				<path style="fill:#267FE5;" d="M382.657,262.678c-0.55,0-1.006-0.395-1.106-0.916c-0.013,0.069-0.021,0.139-0.021,0.211
					c0,0.622,0.505,1.127,1.127,1.127c0.622,0,1.127-0.504,1.127-1.127c0-0.072-0.008-0.143-0.021-0.211
					C383.663,262.284,383.207,262.678,382.657,262.678z"/>
			</g>
			<g>
				<circle style="fill:#6DE0F6;" cx="382.657" cy="269.362" r="1.127"/>
				<path style="fill:#267FE5;" d="M382.657,270.067c-0.55,0-1.006-0.395-1.106-0.915c-0.013,0.068-0.021,0.139-0.021,0.211
					c0,0.622,0.505,1.127,1.127,1.127c0.622,0,1.127-0.504,1.127-1.127c0-0.072-0.008-0.143-0.021-0.211
					C383.663,269.672,383.207,270.067,382.657,270.067z"/>
			</g>
			<g>
				<circle style="fill:#6DE0F6;" cx="382.657" cy="276.751" r="1.127"/>
				<path style="fill:#267FE5;" d="M382.657,277.455c-0.55,0-1.006-0.395-1.106-0.915c-0.013,0.068-0.021,0.139-0.021,0.211
					c0,0.622,0.505,1.127,1.127,1.127c0.622,0,1.127-0.504,1.127-1.127c0-0.072-0.008-0.143-0.021-0.211
					C383.663,277.061,383.207,277.455,382.657,277.455z"/>
			</g>
			<g>
				<circle style="fill:#6DE0F6;" cx="382.657" cy="284.139" r="1.127"/>
				<path style="fill:#267FE5;" d="M382.657,284.844c-0.55,0-1.006-0.395-1.106-0.915c-0.013,0.068-0.021,0.139-0.021,0.211
					c0,0.622,0.505,1.127,1.127,1.127c0.622,0,1.127-0.504,1.127-1.127c0-0.072-0.008-0.143-0.021-0.211
					C383.663,284.449,383.207,284.844,382.657,284.844z"/>
			</g>
		</g>
	</g>
	<g>
		<g>
			<path style="fill:#161242;" d="M366.546,273.333c-0.225,0-0.467-0.071-0.711-0.212l-1.68-0.97
				c-0.914-0.527-1.658-1.941-1.658-3.152v-45.346c0-0.672,0.229-1.189,0.629-1.42c0.341-0.197,0.767-0.166,1.2,0.083l1.681,0.97
				c0.914,0.528,1.658,1.942,1.658,3.152v45.346c0,0.672-0.229,1.189-0.629,1.42C366.887,273.29,366.721,273.333,366.546,273.333z
				 M363.616,222.448c-0.117,0-0.224,0.027-0.319,0.082c-0.291,0.168-0.458,0.577-0.458,1.123V269c0,1.101,0.667,2.382,1.486,2.855
				l1.681,0.97c0.322,0.186,0.626,0.215,0.858,0.083c0.291-0.168,0.458-0.577,0.458-1.123v-45.346c0-1.101-0.667-2.382-1.486-2.855
				l-1.68-0.97C363.965,222.503,363.782,222.448,363.616,222.448z"/>
		</g>
	</g>
</g>
<g>
	<g>
		<path style="fill:#0C0F38;" d="M297.856,353.358l-48.485-27.993c-3.447-1.99-3.015-5.467,0.966-7.765l46.552-26.877
			c3.981-2.298,10.002-2.548,13.449-0.557l48.485,27.993c3.447,1.99,3.015,5.467-0.966,7.765L311.306,352.8
			C307.325,355.098,301.304,355.348,297.856,353.358z"/>
		
			<linearGradient id="SVGID_00000046337472772949267270000001812225939771823030_" gradientUnits="userSpaceOnUse" x1="234.6552" y1="277.5047" x2="376.9515" y2="277.5047">
			<stop  offset="0" style="stop-color:#A31FA9"/>
			<stop  offset="0.0668" style="stop-color:#8B17A0"/>
			<stop  offset="0.1494" style="stop-color:#740F98"/>
			<stop  offset="0.2393" style="stop-color:#640A92"/>
			<stop  offset="0.3408" style="stop-color:#5B078F"/>
			<stop  offset="0.4785" style="stop-color:#58068E"/>
			<stop  offset="0.6264" style="stop-color:#4D22A3"/>
			<stop  offset="0.9436" style="stop-color:#3168DA"/>
			<stop  offset="1" style="stop-color:#2C75E4"/>
		</linearGradient>
		<path style="fill:url(#SVGID_00000046337472772949267270000001812225939771823030_);" d="M362.497,234.771h-24.613l-27.399-15.819
			c-3.529-2.037-9.692-1.782-13.767,0.571l-26.41,15.248h-24.601v68.944h0.008c-0.1,1.379,0.669,2.709,2.364,3.688l49.629,28.654
			c3.529,2.037,9.692,1.782,13.767-0.571l47.651-27.511c2.117-1.222,3.244-2.769,3.352-4.26h0.018V234.771z"/>
		<path style="fill:#D4088C;" d="M251.94,234.771h-6.233v68.943h0.008c-0.071,0.978,0.305,1.93,1.129,2.751
			c-0.527-0.702-0.766-1.476-0.708-2.267h-0.008v-68.943h6.298C252.272,235.088,252.108,234.926,251.94,234.771z"/>
		<path style="fill:#6DE0F6;" d="M354.619,234.771c-0.045,0.138-0.092,0.276-0.141,0.415h7.577v68.943h-0.018
			c-0.067,0.924-0.528,1.869-1.371,2.746c1.121-0.989,1.735-2.088,1.813-3.16h0.018v-68.943H354.619z"/>
		<polygon style="opacity:0.5;fill:#D4088C;" points="263.093,316.069 263.093,236.103 254.154,236.103 254.154,310.909 		"/>
		<polygon style="opacity:0.3;fill:#D4088C;" points="268.581,319.238 268.581,241.474 266.139,241.474 266.139,317.828 		"/>
		<polygon style="opacity:0.15;fill:#D4088C;" points="272.952,321.762 272.952,242.413 270.51,242.413 270.51,320.352 		"/>
		
			<linearGradient id="SVGID_00000117644025093120509150000013312781426943236232_" gradientUnits="userSpaceOnUse" x1="591.4302" y1="792.4351" x2="658.5517" y2="734.3062" gradientTransform="matrix(0.866 0.5 -1 0.5774 525.0016 -518.4943)">
			<stop  offset="0" style="stop-color:#267FE5"/>
			<stop  offset="0.1699" style="stop-color:#2C87E7"/>
			<stop  offset="0.441" style="stop-color:#3D9FEB"/>
			<stop  offset="0.7773" style="stop-color:#59C4F2"/>
			<stop  offset="1" style="stop-color:#6EE1F8"/>
		</linearGradient>
		<path style="fill:url(#SVGID_00000117644025093120509150000013312781426943236232_);" d="M297.709,267.113L248.08,238.46
			c-3.529-2.037-3.086-5.596,0.988-7.948L296.719,203c4.075-2.352,10.238-2.608,13.767-0.571l49.629,28.653
			c3.529,2.037,3.086,5.596-0.988,7.948l-47.651,27.511C307.401,268.895,301.238,269.151,297.709,267.113z"/>
		<path style="fill:#6DE0F6;" d="M298.255,267.113l-49.629-28.654c-3.529-2.037-3.086-5.596,0.988-7.948L297.265,203
			c2.018-1.165,4.549-1.813,7.019-1.925c-2.64,0.034-5.396,0.673-7.565,1.925l-47.651,27.511c-4.075,2.352-4.517,5.911-0.988,7.948
			l49.629,28.654c1.781,1.028,4.232,1.469,6.748,1.354C302.137,268.498,299.906,268.066,298.255,267.113z"/>
		<path style="fill:#6DE0F6;" d="M360.115,231.083l-49.629-28.654c-1.783-1.03-4.24-1.469-6.759-1.353
			c2.292-0.019,4.492,0.411,6.124,1.353l49.629,28.654c3.529,2.037,3.086,5.596-0.988,7.948l-47.651,27.511
			c-2.015,1.163-4.542,1.81-7.007,1.924c2.664-0.022,5.453-0.659,7.643-1.924l47.651-27.511
			C363.201,236.679,363.644,233.12,360.115,231.083z"/>
		<path style="fill:#6DE0F6;" d="M303.792,260.04c-1.701,0-3.324-0.343-4.536-1.042l-36.949-21.332
			c-1.199-0.692-1.859-1.658-1.859-2.718c0-1.269,0.946-2.544,2.595-3.496l35.476-20.482c3.076-1.777,7.75-1.966,10.42-0.425
			l36.949,21.332c1.199,0.692,1.859,1.658,1.859,2.718c0,1.269-0.946,2.544-2.595,3.496l-35.476,20.482
			C307.996,259.543,305.839,260.04,303.792,260.04z M304.403,209.839c-1.985,0-4.08,0.483-5.714,1.427l-35.476,20.482
			c-1.54,0.889-2.424,2.056-2.424,3.199c0,0.934,0.599,1.794,1.688,2.422l36.949,21.332c2.576,1.487,7.097,1.297,10.079-0.425
			l35.476-20.482c1.54-0.889,2.424-2.056,2.424-3.199c0-0.934-0.6-1.794-1.688-2.422l-36.949-21.332
			C307.603,210.169,306.041,209.839,304.403,209.839z"/>
		<g>
			<g>
				<path style="fill:#6DE0F6;" d="M312.892,272.006l41.982-24.283c0.384-0.222,0.695-0.816,0.695-1.329v-0.689
					c0-0.512-0.311-0.747-0.695-0.526l-41.982,24.283c-0.384,0.222-0.695,0.817-0.695,1.329v0.689
					C312.196,271.993,312.508,272.228,312.892,272.006z"/>
				<path style="fill:#267FE5;" d="M353.954,247.199c0.384-0.222,0.695-0.817,0.695-1.329v-0.56l0.224-0.129
					c0.384-0.222,0.695,0.014,0.695,0.526v0.689c0,0.512-0.311,1.107-0.695,1.329l-41.982,24.283
					c-0.384,0.222-0.695-0.014-0.695-0.526v-0.129L353.954,247.199z"/>
			</g>
			<g>
				<path style="fill:#6DE0F6;" d="M312.892,279.395l41.982-24.283c0.384-0.222,0.695-0.817,0.695-1.329v-0.689
					c0-0.512-0.311-0.747-0.695-0.526l-41.982,24.283c-0.384,0.222-0.695,0.817-0.695,1.329v0.689
					C312.196,279.381,312.508,279.616,312.892,279.395z"/>
				<path style="fill:#267FE5;" d="M353.954,254.587c0.384-0.222,0.695-0.817,0.695-1.329v-0.56l0.224-0.129
					c0.384-0.222,0.695,0.014,0.695,0.526v0.689c0,0.512-0.311,1.107-0.695,1.329l-41.982,24.283
					c-0.384,0.222-0.695-0.014-0.695-0.526v-0.129L353.954,254.587z"/>
			</g>
			<g>
				<path style="fill:#6DE0F6;" d="M312.892,286.783l41.982-24.283c0.384-0.222,0.695-0.816,0.695-1.329v-0.689
					c0-0.512-0.311-0.747-0.695-0.526l-41.982,24.283c-0.384,0.222-0.695,0.817-0.695,1.329v0.689
					C312.196,286.77,312.508,287.005,312.892,286.783z"/>
				<path style="fill:#267FE5;" d="M353.954,261.975c0.384-0.222,0.695-0.817,0.695-1.329v-0.56l0.224-0.129
					c0.384-0.222,0.695,0.014,0.695,0.526v0.689c0,0.512-0.311,1.107-0.695,1.329l-41.982,24.283
					c-0.384,0.222-0.695-0.014-0.695-0.526v-0.129L353.954,261.975z"/>
			</g>
			<g>
				<path style="fill:#6DE0F6;" d="M312.892,294.172l41.982-24.283c0.384-0.222,0.695-0.816,0.695-1.329v-0.689
					c0-0.512-0.311-0.747-0.695-0.526l-41.982,24.283c-0.384,0.222-0.695,0.817-0.695,1.329v0.689
					C312.196,294.158,312.508,294.393,312.892,294.172z"/>
				<path style="fill:#267FE5;" d="M353.954,269.364c0.384-0.222,0.695-0.817,0.695-1.329v-0.56l0.224-0.129
					c0.384-0.222,0.695,0.014,0.695,0.526v0.689c0,0.512-0.311,1.107-0.695,1.329l-41.982,24.283
					c-0.384,0.222-0.695-0.014-0.695-0.526v-0.129L353.954,269.364z"/>
			</g>
			<g>
				<path style="fill:#6DE0F6;" d="M312.892,301.56l41.982-24.283c0.384-0.222,0.695-0.817,0.695-1.329v-0.689
					c0-0.512-0.311-0.747-0.695-0.526l-41.982,24.283c-0.384,0.222-0.695,0.817-0.695,1.329v0.689
					C312.196,301.546,312.508,301.782,312.892,301.56z"/>
				<path style="fill:#267FE5;" d="M353.954,276.752c0.384-0.222,0.695-0.817,0.695-1.329v-0.56l0.224-0.129
					c0.384-0.222,0.695,0.014,0.695,0.526v0.689c0,0.512-0.311,1.107-0.695,1.329l-41.982,24.283
					c-0.384,0.222-0.695-0.014-0.695-0.526v-0.129L353.954,276.752z"/>
			</g>
			<g>
				<path style="fill:#6DE0F6;" d="M312.892,308.948l41.982-24.283c0.384-0.222,0.695-0.816,0.695-1.329v-0.689
					c0-0.512-0.311-0.747-0.695-0.526l-41.982,24.283c-0.384,0.222-0.695,0.817-0.695,1.329v0.689
					C312.196,308.935,312.508,309.17,312.892,308.948z"/>
				<path style="fill:#267FE5;" d="M353.954,284.141c0.384-0.222,0.695-0.817,0.695-1.329v-0.56l0.224-0.129
					c0.384-0.222,0.695,0.014,0.695,0.526v0.689c0,0.512-0.311,1.107-0.695,1.329l-41.982,24.283
					c-0.384,0.222-0.695-0.014-0.695-0.526v-0.129L353.954,284.141z"/>
			</g>
			<g>
				<path style="fill:#6DE0F6;" d="M312.892,316.337l41.982-24.283c0.384-0.222,0.695-0.816,0.695-1.329v-0.689
					c0-0.512-0.311-0.747-0.695-0.526l-41.982,24.283c-0.384,0.222-0.695,0.817-0.695,1.329v0.689
					C312.196,316.323,312.508,316.558,312.892,316.337z"/>
				<path style="fill:#267FE5;" d="M353.954,291.529c0.384-0.222,0.695-0.817,0.695-1.329v-0.56l0.224-0.129
					c0.384-0.222,0.695,0.014,0.695,0.526v0.689c0,0.512-0.311,1.107-0.695,1.329l-41.982,24.283
					c-0.384,0.222-0.695-0.014-0.695-0.526v-0.129L353.954,291.529z"/>
			</g>
			<g>
				<path style="fill:#6DE0F6;" d="M312.892,323.725l41.982-24.283c0.384-0.222,0.695-0.816,0.695-1.329v-0.689
					c0-0.512-0.311-0.747-0.695-0.526l-41.982,24.283c-0.384,0.222-0.695,0.817-0.695,1.329v0.689
					C312.196,323.711,312.508,323.947,312.892,323.725z"/>
				<path style="fill:#267FE5;" d="M353.954,298.917c0.384-0.222,0.695-0.817,0.695-1.329v-0.56l0.224-0.129
					c0.384-0.222,0.695,0.014,0.695,0.526v0.689c0,0.512-0.311,1.107-0.695,1.329l-41.982,24.283
					c-0.384,0.222-0.695-0.014-0.695-0.526v-0.129L353.954,298.917z"/>
			</g>
			<g>
				<path style="fill:#6DE0F6;" d="M312.892,331.113l41.982-24.283c0.384-0.222,0.695-0.816,0.695-1.329v-0.689
					c0-0.512-0.311-0.747-0.695-0.526l-41.982,24.283c-0.384,0.222-0.695,0.817-0.695,1.329v0.689
					C312.196,331.1,312.508,331.335,312.892,331.113z"/>
				<path style="fill:#267FE5;" d="M353.954,306.306c0.384-0.222,0.695-0.817,0.695-1.329v-0.56l0.224-0.129
					c0.384-0.222,0.695,0.014,0.695,0.526v0.689c0,0.512-0.311,1.107-0.695,1.329l-41.982,24.283
					c-0.384,0.222-0.695-0.014-0.695-0.526v-0.129L353.954,306.306z"/>
			</g>
		</g>
		<g>
			<g>
				<circle style="fill:#6DE0F6;" cx="304.097" cy="273.208" r="1.127"/>
				<path style="fill:#267FE5;" d="M304.097,273.912c-0.55,0-1.007-0.395-1.106-0.915c-0.013,0.069-0.021,0.139-0.021,0.211
					c0,0.622,0.505,1.127,1.127,1.127c0.622,0,1.127-0.504,1.127-1.127c0-0.072-0.008-0.143-0.021-0.211
					C305.104,273.518,304.647,273.912,304.097,273.912z"/>
			</g>
			<g>
				<circle style="fill:#6DE0F6;" cx="304.097" cy="280.596" r="1.127"/>
				<path style="fill:#267FE5;" d="M304.097,281.301c-0.55,0-1.007-0.395-1.106-0.915c-0.013,0.069-0.021,0.139-0.021,0.211
					c0,0.622,0.505,1.127,1.127,1.127c0.622,0,1.127-0.504,1.127-1.127c0-0.072-0.008-0.143-0.021-0.211
					C305.104,280.906,304.647,281.301,304.097,281.301z"/>
			</g>
			<g>
				<circle style="fill:#6DE0F6;" cx="304.097" cy="287.985" r="1.127"/>
				<path style="fill:#267FE5;" d="M304.097,288.689c-0.55,0-1.007-0.395-1.106-0.915c-0.013,0.069-0.021,0.139-0.021,0.211
					c0,0.622,0.505,1.127,1.127,1.127c0.622,0,1.127-0.504,1.127-1.127c0-0.072-0.008-0.143-0.021-0.211
					C305.104,288.295,304.647,288.689,304.097,288.689z"/>
			</g>
			<g>
				<circle style="fill:#6DE0F6;" cx="304.097" cy="295.373" r="1.127"/>
				<path style="fill:#267FE5;" d="M304.097,296.078c-0.55,0-1.007-0.395-1.106-0.916c-0.013,0.069-0.021,0.139-0.021,0.211
					c0,0.622,0.505,1.127,1.127,1.127c0.622,0,1.127-0.504,1.127-1.127c0-0.072-0.008-0.143-0.021-0.211
					C305.104,295.683,304.647,296.078,304.097,296.078z"/>
			</g>
			<g>
				<circle style="fill:#6DE0F6;" cx="304.097" cy="302.762" r="1.127"/>
				<path style="fill:#267FE5;" d="M304.097,303.466c-0.55,0-1.007-0.395-1.106-0.915c-0.013,0.068-0.021,0.139-0.021,0.211
					c0,0.622,0.505,1.127,1.127,1.127c0.622,0,1.127-0.504,1.127-1.127c0-0.072-0.008-0.143-0.021-0.211
					C305.104,303.071,304.647,303.466,304.097,303.466z"/>
			</g>
			<g>
				<circle style="fill:#6DE0F6;" cx="304.097" cy="310.15" r="1.127"/>
				<path style="fill:#267FE5;" d="M304.097,310.854c-0.55,0-1.007-0.395-1.106-0.915c-0.013,0.068-0.021,0.139-0.021,0.211
					c0,0.622,0.505,1.127,1.127,1.127c0.622,0,1.127-0.504,1.127-1.127c0-0.072-0.008-0.143-0.021-0.211
					C305.104,310.46,304.647,310.854,304.097,310.854z"/>
			</g>
			<g>
				<circle style="fill:#6DE0F6;" cx="304.097" cy="317.538" r="1.127"/>
				<path style="fill:#267FE5;" d="M304.097,318.243c-0.55,0-1.007-0.395-1.106-0.915c-0.013,0.068-0.021,0.139-0.021,0.211
					c0,0.622,0.505,1.127,1.127,1.127c0.622,0,1.127-0.504,1.127-1.127c0-0.072-0.008-0.143-0.021-0.211
					C305.104,317.848,304.647,318.243,304.097,318.243z"/>
			</g>
			<g>
				<circle style="fill:#6DE0F6;" cx="304.097" cy="324.927" r="1.127"/>
				<path style="fill:#267FE5;" d="M304.097,325.631c-0.55,0-1.007-0.395-1.106-0.915c-0.013,0.068-0.021,0.139-0.021,0.211
					c0,0.622,0.505,1.127,1.127,1.127c0.622,0,1.127-0.504,1.127-1.127c0-0.072-0.008-0.143-0.021-0.211
					C305.104,325.237,304.647,325.631,304.097,325.631z"/>
			</g>
			<g>
				<circle style="fill:#6DE0F6;" cx="304.097" cy="332.315" r="1.127"/>
				<path style="fill:#267FE5;" d="M304.097,333.02c-0.55,0-1.007-0.395-1.106-0.915c-0.013,0.068-0.021,0.139-0.021,0.211
					c0,0.622,0.505,1.127,1.127,1.127c0.622,0,1.127-0.504,1.127-1.127c0-0.072-0.008-0.143-0.021-0.211
					C305.104,332.625,304.647,333.02,304.097,333.02z"/>
			</g>
		</g>
	</g>
	<g>
		<g>
			<path style="fill:#161242;" d="M287.987,321.509c-0.225,0-0.467-0.071-0.711-0.212l-1.68-0.97
				c-0.914-0.527-1.658-1.941-1.658-3.152v-45.346c0-0.672,0.229-1.189,0.629-1.42c0.341-0.197,0.767-0.166,1.2,0.083l1.681,0.97
				c0.914,0.528,1.658,1.942,1.658,3.152v45.346c0,0.672-0.229,1.189-0.629,1.42C288.327,321.466,288.162,321.509,287.987,321.509z
				 M285.056,270.624c-0.116,0-0.224,0.027-0.319,0.082c-0.291,0.168-0.458,0.578-0.458,1.123v45.346
				c0,1.101,0.667,2.382,1.486,2.855l1.681,0.97c0.322,0.186,0.626,0.215,0.857,0.083c0.291-0.168,0.458-0.577,0.458-1.123v-45.346
				c0-1.101-0.667-2.382-1.486-2.855l-1.68-0.97C285.405,270.679,285.222,270.624,285.056,270.624z"/>
		</g>
	</g>
</g>
<g>
	<path style="fill:#6DE0F6;" d="M220.814,326.085c-0.602,1.042-1.935,1.398-2.977,0.796c-1.042-0.602-1.398-1.935-0.796-2.977
		c0.602-1.042,1.935-1.398,2.977-0.796C221.06,323.71,221.417,325.043,220.814,326.085z"/>
	<path style="opacity:0.8813;fill:#6DE0F6;" d="M215.516,323.023c-0.602,1.042-1.935,1.398-2.977,0.796
		c-1.042-0.602-1.398-1.935-0.796-2.977c0.602-1.042,1.935-1.398,2.977-0.796C215.761,320.648,216.118,321.981,215.516,323.023z"/>
	<path style="opacity:0.7625;fill:#6DE0F6;" d="M210.217,319.961c-0.602,1.042-1.935,1.398-2.977,0.796
		c-1.042-0.602-1.398-1.935-0.796-2.977c0.602-1.042,1.935-1.398,2.977-0.796C210.463,317.586,210.819,318.919,210.217,319.961z"/>
	<path style="opacity:0.6438;fill:#6DE0F6;" d="M204.919,316.899c-0.602,1.042-1.935,1.398-2.977,0.796
		c-1.042-0.602-1.398-1.935-0.796-2.977c0.602-1.042,1.935-1.398,2.977-0.796C205.164,314.524,205.521,315.857,204.919,316.899z"/>
	<path style="opacity:0.525;fill:#6DE0F6;" d="M199.62,313.837c-0.602,1.042-1.935,1.398-2.977,0.796
		c-1.042-0.602-1.399-1.935-0.796-2.977c0.602-1.042,1.935-1.398,2.977-0.796C199.865,311.462,200.222,312.795,199.62,313.837z"/>
	<path style="opacity:0.4063;fill:#6DE0F6;" d="M194.321,310.775c-0.602,1.042-1.935,1.398-2.977,0.796
		c-1.042-0.602-1.398-1.935-0.796-2.977c0.602-1.042,1.935-1.398,2.977-0.796C194.567,308.4,194.923,309.733,194.321,310.775z"/>
	<path style="opacity:0.2875;fill:#6DE0F6;" d="M189.022,307.713c-0.602,1.042-1.935,1.398-2.977,0.796
		c-1.042-0.602-1.398-1.935-0.796-2.977c0.602-1.042,1.935-1.398,2.977-0.796C189.268,305.338,189.625,306.671,189.022,307.713z"/>
	<path style="opacity:0.1688;fill:#6DE0F6;" d="M183.724,304.651c-0.602,1.042-1.935,1.398-2.977,0.796
		c-1.042-0.602-1.398-1.935-0.796-2.977s1.935-1.398,2.977-0.796C183.969,302.276,184.326,303.609,183.724,304.651z"/>
	<path style="opacity:0.05;fill:#6DE0F6;" d="M178.425,301.589c-0.602,1.042-1.935,1.398-2.977,0.796
		c-1.042-0.602-1.398-1.935-0.796-2.977c0.602-1.042,1.935-1.398,2.977-0.796C178.671,299.214,179.027,300.547,178.425,301.589z"/>
</g>
<radialGradient id="SVGID_00000034793565344896436030000011371116006661580447_" cx="153.57" cy="1198.4692" r="9.1218" gradientTransform="matrix(-1 0 0 -1 372.5118 1523.4629)" gradientUnits="userSpaceOnUse">
	<stop  offset="0" style="stop-color:#25BFEC"/>
	<stop  offset="0.0554" style="stop-color:#21A6D3"/>
	<stop  offset="0.1578" style="stop-color:#1C7EAA"/>
	<stop  offset="0.2665" style="stop-color:#175C87"/>
	<stop  offset="0.3808" style="stop-color:#13406A"/>
	<stop  offset="0.5026" style="stop-color:#102A54"/>
	<stop  offset="0.6353" style="stop-color:#0E1B44"/>
	<stop  offset="0.787" style="stop-color:#0C123B"/>
	<stop  offset="1" style="stop-color:#0C0F38"/>
</radialGradient>
<path style="fill:url(#SVGID_00000034793565344896436030000011371116006661580447_);" d="M211.045,320.43
	c2.52-4.361,8.099-5.853,12.46-3.333c4.361,2.52,5.854,8.099,3.333,12.46c-2.52,4.361-8.099,5.854-12.46,3.333
	C210.017,330.37,208.525,324.792,211.045,320.43z"/>
<g>
	<path style="fill:#6DE0F6;" d="M217.055,323.904c0.602-1.042,1.935-1.398,2.977-0.796c1.042,0.602,1.398,1.935,0.796,2.977
		c-0.602,1.042-1.935,1.398-2.977,0.796C216.81,326.278,216.453,324.945,217.055,323.904z"/>
	<path style="opacity:0.8813;fill:#6DE0F6;" d="M222.354,326.965c0.602-1.042,1.935-1.398,2.977-0.796
		c1.042,0.602,1.398,1.935,0.796,2.977c-0.602,1.042-1.935,1.398-2.977,0.796C222.108,329.34,221.752,328.007,222.354,326.965z"/>
	<path style="opacity:0.7625;fill:#6DE0F6;" d="M227.652,330.027c0.602-1.042,1.935-1.398,2.977-0.796
		c1.042,0.602,1.398,1.935,0.796,2.977c-0.602,1.042-1.935,1.398-2.977,0.796C227.407,332.402,227.05,331.069,227.652,330.027z"/>
	<path style="opacity:0.6438;fill:#6DE0F6;" d="M232.951,333.089c0.602-1.042,1.935-1.398,2.977-0.796
		c1.042,0.602,1.398,1.935,0.796,2.977c-0.602,1.042-1.935,1.398-2.977,0.796C232.706,335.464,232.349,334.131,232.951,333.089z"/>
	<path style="opacity:0.525;fill:#6DE0F6;" d="M238.25,336.151c0.602-1.042,1.935-1.398,2.977-0.796
		c1.042,0.602,1.398,1.935,0.796,2.977s-1.935,1.398-2.977,0.796C238.004,338.526,237.648,337.193,238.25,336.151z"/>
	<path style="opacity:0.4063;fill:#6DE0F6;" d="M243.548,339.213c0.602-1.042,1.935-1.398,2.977-0.796
		c1.042,0.602,1.398,1.935,0.796,2.977c-0.602,1.042-1.935,1.399-2.977,0.796C243.303,341.588,242.946,340.255,243.548,339.213z"/>
	<path style="opacity:0.2875;fill:#6DE0F6;" d="M248.847,342.275c0.602-1.042,1.935-1.398,2.977-0.796
		c1.042,0.602,1.398,1.935,0.796,2.977c-0.602,1.042-1.935,1.398-2.977,0.796C248.602,344.65,248.245,343.317,248.847,342.275z"/>
	<path style="opacity:0.1688;fill:#6DE0F6;" d="M254.146,345.337c0.602-1.042,1.935-1.398,2.977-0.796
		c1.042,0.602,1.398,1.935,0.796,2.977c-0.602,1.042-1.935,1.398-2.977,0.796C253.9,347.712,253.544,346.379,254.146,345.337z"/>
	<path style="opacity:0.05;fill:#6DE0F6;" d="M259.444,348.399c0.602-1.042,1.935-1.398,2.977-0.796
		c1.042,0.602,1.398,1.935,0.796,2.977c-0.602,1.042-1.935,1.398-2.977,0.796C259.199,350.774,258.842,349.441,259.444,348.399z"/>
</g>
<g>
	<path style="fill:#6DE0F6;" d="M387.486,326.017c0.602,1.042,1.935,1.398,2.977,0.796c1.042-0.602,1.398-1.935,0.796-2.977
		c-0.602-1.042-1.935-1.398-2.977-0.796C387.24,323.643,386.883,324.975,387.486,326.017z"/>
	<path style="opacity:0.8813;fill:#6DE0F6;" d="M392.784,322.955c0.602,1.042,1.935,1.398,2.977,0.796
		c1.042-0.602,1.398-1.935,0.796-2.977c-0.602-1.042-1.935-1.398-2.977-0.796C392.539,320.581,392.182,321.914,392.784,322.955z"/>
	<path style="opacity:0.7625;fill:#6DE0F6;" d="M398.083,319.893c0.602,1.042,1.935,1.398,2.977,0.796
		c1.042-0.602,1.398-1.935,0.796-2.977c-0.602-1.042-1.935-1.398-2.977-0.796C397.837,317.519,397.481,318.852,398.083,319.893z"/>
	<path style="opacity:0.6438;fill:#6DE0F6;" d="M403.382,316.832c0.602,1.042,1.935,1.398,2.977,0.796
		c1.042-0.602,1.398-1.935,0.796-2.977c-0.602-1.042-1.935-1.398-2.977-0.796C403.136,314.457,402.779,315.79,403.382,316.832z"/>
	<path style="opacity:0.525;fill:#6DE0F6;" d="M408.68,313.77c0.602,1.042,1.935,1.398,2.977,0.796
		c1.042-0.602,1.398-1.935,0.796-2.977c-0.602-1.042-1.935-1.398-2.977-0.796C408.435,311.395,408.078,312.728,408.68,313.77z"/>
	<path style="opacity:0.4063;fill:#6DE0F6;" d="M413.979,310.708c0.602,1.042,1.935,1.398,2.977,0.796s1.398-1.935,0.796-2.977
		c-0.602-1.042-1.935-1.398-2.977-0.796C413.733,308.333,413.377,309.666,413.979,310.708z"/>
	<path style="opacity:0.2875;fill:#6DE0F6;" d="M419.277,307.646c0.602,1.042,1.935,1.398,2.977,0.796
		c1.042-0.602,1.398-1.935,0.796-2.977c-0.602-1.042-1.935-1.398-2.977-0.796C419.032,305.271,418.675,306.604,419.277,307.646z"/>
	<path style="opacity:0.1688;fill:#6DE0F6;" d="M424.576,304.584c0.602,1.042,1.935,1.398,2.977,0.796
		c1.042-0.602,1.398-1.935,0.796-2.977c-0.602-1.042-1.935-1.398-2.977-0.796C424.331,302.209,423.974,303.542,424.576,304.584z"/>
	<path style="opacity:0.05;fill:#6DE0F6;" d="M429.875,301.522c0.602,1.042,1.935,1.398,2.977,0.796
		c1.042-0.602,1.398-1.935,0.796-2.977c-0.602-1.042-1.935-1.398-2.977-0.796C429.629,299.147,429.273,300.48,429.875,301.522z"/>
</g>
<g>
	<path style="fill:#6DE0F6;" d="M391.245,323.836c-0.602-1.042-1.935-1.398-2.977-0.796c-1.042,0.602-1.398,1.935-0.796,2.977
		c0.602,1.042,1.935,1.398,2.977,0.796C391.49,326.211,391.847,324.878,391.245,323.836z"/>
	<path style="opacity:0.8813;fill:#6DE0F6;" d="M385.946,326.898c-0.602-1.042-1.935-1.398-2.977-0.796
		c-1.042,0.602-1.398,1.935-0.796,2.977c0.602,1.042,1.935,1.398,2.977,0.796C386.192,329.273,386.548,327.94,385.946,326.898z"/>
	<path style="opacity:0.7625;fill:#6DE0F6;" d="M380.647,329.96c-0.602-1.042-1.935-1.398-2.977-0.796
		c-1.042,0.602-1.398,1.935-0.796,2.977s1.935,1.398,2.977,0.796C380.893,332.335,381.25,331.002,380.647,329.96z"/>
	<path style="opacity:0.6438;fill:#6DE0F6;" d="M375.349,333.022c-0.602-1.042-1.935-1.398-2.977-0.796
		c-1.042,0.602-1.398,1.935-0.796,2.977c0.602,1.042,1.935,1.398,2.977,0.796S375.951,334.064,375.349,333.022z"/>
	<path style="opacity:0.525;fill:#6DE0F6;" d="M370.05,336.084c-0.602-1.042-1.935-1.398-2.977-0.796
		c-1.042,0.602-1.398,1.935-0.796,2.977c0.602,1.042,1.935,1.398,2.977,0.796C370.296,338.459,370.652,337.126,370.05,336.084z"/>
	<path style="opacity:0.4063;fill:#6DE0F6;" d="M364.752,339.146c-0.602-1.042-1.935-1.398-2.977-0.796
		c-1.042,0.602-1.398,1.935-0.796,2.977c0.602,1.042,1.935,1.399,2.977,0.796S365.354,340.188,364.752,339.146z"/>
	<path style="opacity:0.2875;fill:#6DE0F6;" d="M359.453,342.208c-0.602-1.042-1.935-1.398-2.977-0.796
		c-1.042,0.602-1.398,1.935-0.796,2.977c0.602,1.042,1.935,1.398,2.977,0.796C359.698,344.583,360.055,343.25,359.453,342.208z"/>
	<path style="opacity:0.1688;fill:#6DE0F6;" d="M354.154,345.27c-0.602-1.042-1.935-1.398-2.977-0.796
		c-1.042,0.602-1.398,1.935-0.796,2.977c0.602,1.042,1.935,1.398,2.977,0.796C354.4,347.645,354.756,346.312,354.154,345.27z"/>
	<path style="opacity:0.05;fill:#6DE0F6;" d="M348.856,348.332c-0.602-1.042-1.935-1.398-2.977-0.796
		c-1.042,0.602-1.398,1.935-0.796,2.977c0.602,1.042,1.935,1.398,2.977,0.796C349.101,350.707,349.458,349.374,348.856,348.332z"/>
</g>
<radialGradient id="SVGID_00000070082736987648312020000005518749560691524239_" cx="-58.7144" cy="1243.0778" r="12.4527" gradientTransform="matrix(1 0 0 -1 362.8165 1523.4629)" gradientUnits="userSpaceOnUse">
	<stop  offset="0" style="stop-color:#6EE8FC"/>
	<stop  offset="0.0344" style="stop-color:#6CDAF5"/>
	<stop  offset="0.1787" style="stop-color:#62A2D8"/>
	<stop  offset="0.324" style="stop-color:#5A72C0"/>
	<stop  offset="0.4671" style="stop-color:#544BAC"/>
	<stop  offset="0.6077" style="stop-color:#4F2D9D"/>
	<stop  offset="0.745" style="stop-color:#4B1792"/>
	<stop  offset="0.8775" style="stop-color:#490A8B"/>
	<stop  offset="1" style="stop-color:#480689"/>
</radialGradient>
<path style="opacity:0.5;fill:url(#SVGID_00000070082736987648312020000005518749560691524239_);" d="M314.882,274.156
	c-3.441-5.954-11.056-7.991-17.01-4.551c-5.954,3.44-7.991,11.056-4.551,17.01c3.44,5.954,11.056,7.991,17.01,4.551
	C316.285,287.725,318.323,280.109,314.882,274.156z"/>
<radialGradient id="SVGID_00000156547438287252536210000007217857993480042428_" cx="-58.7144" cy="1213.5242" r="4.6013" gradientTransform="matrix(1 0 0 -1 362.8165 1523.4629)" gradientUnits="userSpaceOnUse">
	<stop  offset="0" style="stop-color:#6EE8FC"/>
	<stop  offset="0.1183" style="stop-color:#6BD8F4"/>
	<stop  offset="0.249" style="stop-color:#62A1D8"/>
	<stop  offset="0.3802" style="stop-color:#5A72C0"/>
	<stop  offset="0.5114" style="stop-color:#544BAC"/>
	<stop  offset="0.6403" style="stop-color:#4F2D9D"/>
	<stop  offset="0.7662" style="stop-color:#4B1792"/>
	<stop  offset="0.8877" style="stop-color:#490A8B"/>
	<stop  offset="1" style="stop-color:#480689"/>
</radialGradient>
<path style="fill:url(#SVGID_00000156547438287252536210000007217857993480042428_);" d="M308.085,307.637
	c-1.271-2.2-4.085-2.953-6.285-1.681c-2.2,1.271-2.953,4.085-1.681,6.285s4.085,2.953,6.285,1.681
	C308.604,312.651,309.357,309.837,308.085,307.637z"/>
</svg>
